HIERARCHY
ROOT Spine
{
    OFFSET 0.0 0.0 -0.0
    CHANNELS 6 Xposition Yposition Zposition Zrotation Xrotation Yrotation
    JOINT ShoulderCenter
    {
        OFFSET 0.0 19.745180130004883 0.0
        CHANNELS 3 Zrotation Xrotation Yrotation
        JOINT LeftShoulder
        {
            OFFSET 13.321146011352539 0.0 0.0
            CHANNELS 3 Zrotation Xrotation Yrotation
            JOINT LeftElbow
            {
                OFFSET 21.55130958557129 0.0 0.0
                CHANNELS 3 Zrotation Xrotation Yrotation
                JOINT LeftHand
                {
                    OFFSET 24.723426818847656 0.0 0.0
                    CHANNELS 3 Zrotation Xrotation Yrotation
                    End Site
                    {
                        OFFSET 9.889371871948242 0.0 0.0
                    }
                }
            }
        }
        JOINT RightShoulder
        {
            OFFSET -13.321146011352539 0.0 0.0
            CHANNELS 3 Zrotation Xrotation Yrotation
            JOINT RightElbow
            {
                OFFSET -21.55130958557129 0.0 0.0
                CHANNELS 3 Zrotation Xrotation Yrotation
                JOINT RightHand
                {
                    OFFSET -24.723426818847656 0.0 0.0
                    CHANNELS 3 Zrotation Xrotation Yrotation
                    End Site
                    {
                        OFFSET -9.889371871948242 0.0 0.0
                    }
                }
            }
        }
        End Site
        {
            OFFSET 0.0 7.898072719573975 0.0
        }
    }
    JOINT LeftHip
    {
        OFFSET 18.643502664041876 -18.643502664041876 0.0
        CHANNELS 3 Zrotation Xrotation Yrotation
        JOINT LeftKnee
        {
            OFFSET 0.0 -29.80474853515625 0.0
            CHANNELS 3 Zrotation Xrotation Yrotation
            JOINT LeftFoot
            {
                OFFSET 0.0 -38.13325881958008 0.0
                CHANNELS 3 Zrotation Xrotation Yrotation
                End Site
                {
                    OFFSET 0.0 0.0 15.253301620483398
                }
            }
        }
    }
    JOINT RightHip
    {
        OFFSET -18.643502664041876 -18.643502664041876 0.0
        CHANNELS 3 Zrotation Xrotation Yrotation
        JOINT RightKnee
        {
            OFFSET 0.0 -29.80474853515625 0.0
            CHANNELS 3 Zrotation Xrotation Yrotation
            JOINT RightFoot
            {
                OFFSET 0.0 -38.13325881958008 0.0
                CHANNELS 3 Zrotation Xrotation Yrotation
                End Site
                {
                    OFFSET 0.0 0.0 15.253301620483398
                }
            }
        }
    }
}
MOTION
Frames: 12
Frame Time: 0.03333333333333333
37.362579345703125 42.617210388183594 -370.962890625 -1.6213769324849763 17.28314544063372 -25.93504900890099 4.859116239896143e-07 -7.91556430652569e-07 177.7296374022661 -84.81457923005624 -47.360131943505195 8.21334780268201 2.6065444763877225e-06 -4.369634461497624e-06 33.956671107223535 -2.53450451179124e-15 3.1805546814635168e-15 9.93923337957349e-16 58.756723890738655 -66.42731613596341 -25.682410526809992 2.8649602909368627e-06 6.445610304798555e-06 -31.377014074788576 3.1805546814635168e-15 6.3611093629270335e-15 -1.7655625192200634e-31 10.193911857872749 3.4663881101765455 -64.36290299179754 8.809255661251113 -9.90889180791584 68.4979014004664 1.2414111463266072e-32 -7.951386703658792e-16 1.7890620083232284e-15 -0.26507957799104703 7.0450567492406995 56.52755707222351 -9.816581450157699 -10.333346309460708 -52.15893370307876 -3.975693351829397e-16 1.5902773407317584e-15 4.273870353216601e-15
37.30984878540039 42.58298110961914 -370.9363098144531 -1.2797907861074203 17.44355799805341 -26.012765302947937 1.0086098798379031e-06 2.637433570246264e-07 177.62495603285674 -84.60439784294901 -46.769672512635644 10.156004328688269 -7.489560147650181e-07 -3.435923565618515e-06 31.413069023101226 2.981770013872048e-16 -3.1805546814635176e-15 7.951386703658794e-16 57.288052055519906 -67.01863046315671 -27.337116095924227 -8.877498665057853e-07 4.039106039643642e-07 -30.937692750545512 1.7655625192200634e-31 -6.3611093629270335e-15 3.1805546814635168e-15 10.014892445766767 3.1692197645091524 -63.921855151353235 8.423677265849348 -9.986573322504157 67.17147175042038 -3.975693351829396e-16 -7.951386703658792e-16 1.8636062586700292e-15 -0.4780187479932686 6.8074925140728775 56.64596149406122 -9.380578020582583 -9.996587756643477 -50.04334977408207 -3.975693351829396e-16 -9.939233379573492e-17 4.0253895187272635e-15
37.401641845703125 42.523719787597656 -370.91558837890625 -1.4989216581370925 17.36131961084937 -25.892391425117463 1.3903114736954425e-08 3.6473731589854634e-07 177.53270869647497 -85.06594423881945 -45.23485821447706 9.637339473838455 6.025340662628759e-06 1.7259212820611547e-06 34.71907370099807 3.1805546814635168e-15 3.1805546814635168e-15 3.975693351829395e-16 58.853714841793014 -65.69778970702596 -25.45129758117462 -6.239668683386173e-07 -1.659729319967827e-06 -31.580901006229634 3.1805546814635168e-15 6.3611093629270335e-15 3.1805546814635168e-15 9.872929068903257 2.979727482424239 -62.20622207102634 7.7227966272185204 -9.44460782552652 63.023145463801875 -3.975693351829396e-16 3.275946080584102e-33 -9.442271710594815e-16 -0.4853501092005005 6.931679811748089 57.14550185411109 -9.201764166985463 -9.902390616528402 -49.30526323626866 0.0 0.0 1.143011838650951e-15
37.43410110473633 42.53960037231445 -370.9237976074219 -1.5751277142431477 17.29543431525138 -25.895884120472786 -6.175845214631229e-07 -3.2468514284725355e-09 177.52227332527744 -84.55613922684434 -47.654596619630595 10.002372144561205 -1.895592244611236e-06 -5.030495358203834e-06 32.24051608291643 -3.0811623476677818e-15 -3.2799470152592518e-15 7.951386703658791e-16 57.3322284346299 -67.15307243400181 -26.760902257439422 3.455191811922479e-07 3.2524650742359668e-06 -32.04456755570336 -3.1805546814635168e-15 1.5902773407317584e-15 4.4139062980501586e-32 9.937249524920027 3.032522195109075 -62.21004110700515 7.705784106071801 -9.552104221619453 63.2467888849575 0.0 0.0 3.776908684237927e-15 -0.33435280031259434 6.907078972099088 56.728771272397985 -8.966856350297869 -9.742965001372992 -48.11862759959582 -5.344964657795114e-33 -1.5405811738338909e-15 -3.975693351829396e-16
37.342010498046875 42.497779846191406 -370.9610900878906 -1.1062175742824585 17.335508041559248 -25.771365599805737 -1.4334531586836346e-07 -1.4945706311279138e-06 177.22019248737203 -84.16756456464834 -46.08584145524591 10.353427281224484 -1.193963648560207e-06 -1.9928583867112396e-06 31.896106204437256 8.150171371250262e-15 -9.89680552765934e-32 -1.3914926731402886e-15 63.426585712159834 -61.2926754182071 -21.6806162192803 -7.366708526773012e-07 -1.091508340860565e-06 -34.241152661002566 4.4139062980501586e-32 1.5902773407317584e-15 -3.1805546814635168e-15 9.540500314040003 2.8610318225133455 -61.49701653111529 7.853983334175372 -9.829045678493408 64.37882909966588 -3.9756933518293955e-16 -3.620782510119271e-33 1.0436195048552163e-15 -0.7059688403549362 6.72116990181864 56.99701080139065 -8.772842914586546 -9.584762106160845 -47.32224126060467 0.0 0.0 9.442271710594815e-16
37.389530181884766 42.52647018432617 -370.9521179199219 -1.4875948125991139 17.33184875283903 -25.65501051702671 -3.9407166337243444e-07 8.962146428328162e-07 177.3703935069784 -84.86719871356225 -47.28189445699117 10.059469241235483 -1.862655366770771e-06 2.860755959676057e-06 31.385035817350353 -5.2180975242760834e-15 3.2799470152592526e-15 8.945310041616144e-16 56.15351852249491 -68.10559635269094 -27.99807217152789 -4.4030208673025504e-06 7.177436196744982e-06 -31.601941775759276 0.0 6.361109362927035e-15 0.0 9.815949560954511 3.2180648514107983 -62.17138437953302 8.369840735180302 -9.817465012001378 65.97348553345105 -3.4483642953516864e-33 -7.951386703658792e-16 -4.969616689786745e-16 -0.40184854915849627 6.92139925822227 56.97473960302004 -8.810722775471099 -9.677512257625514 -47.43143624123233 3.975693351829396e-16 -1.5405811738338909e-15 -4.472655020808071e-16
37.49405288696289 42.55860900878906 -370.9753112792969 -1.6041440296290144 17.26260341332616 -25.392859643734216 -4.031322743029282e-07 2.5945946229138026e-07 177.41736729046724 -86.60535009374182 -43.901631520144434 7.377820615279911 -5.240844004498878e-06 -3.1211302045528533e-06 34.621023699583716 -1.987846675914698e-16 -3.9756933518293955e-16 -3.578124016646456e-15 57.76293385338146 -67.14183215925206 -26.60834182269325 7.058335216500368e-06 8.041150548565547e-07 -31.504681435585162 4.4139062980501586e-32 -1.5902773407317578e-15 3.1805546814635156e-15 10.16111535237759 2.568359337420129 -61.959810381533885 6.699662047354674 -9.374852451250481 60.602574319701354 3.975693351829396e-16 -5.0001282282599455e-33 -1.441188840038156e-15 -0.41020952663220495 7.033479921285525 57.16098563615094 -8.805835625489598 -9.664247342398292 -47.302628872578246 -3.9756933518293955e-16 1.5902773407317582e-15 -1.4411888400381559e-15
37.53624725341797 42.559940338134766 -371.0010070800781 -1.6263775182967053 17.212736451419026 -25.58453705120446 -3.6985700593463843e-07 2.0637420662313472e-07 177.54513052675287 -86.2576685588155 -44.885304255749425 8.100462281335027 2.169640324977601e-06 -5.932721430217687e-07 32.50136183258797 2.2860236773019026e-15 -3.9656189396544395e-32 -1.987846675914698e-15 54.844529524136384 -69.74155827428606 -29.3605311272315 5.698356112591876e-06 5.441115136721051e-06 -31.236979508248737 1.7655625192200634e-31 -1.5902773407317584e-15 1.2722218725854067e-14 10.078756025956912 2.651805437165889 -61.62994167313346 6.574003405064203 -9.369499552031881 59.62663435379598 3.975693351829395e-16 -1.4908850069360234e-15 -3.6278201835443235e-15 -0.617157034267313 7.046896698474082 57.93393554912132 0.4795521604481706 3.730917678386551 11.389594410252132 -8.276074308844047e-33 -3.975693351829396e-16 -2.3854160110976376e-15
37.603397369384766 42.56415939331055 -370.9790954589844 -1.9640183745996755 17.32702984415881 -25.44628560204171 2.546734030757922e-07 -1.4843747030597679e-06 177.49919626403116 -86.39451760108562 -45.34310607581955 8.30633676713393 -2.88088336247656e-06 -2.199407940564966e-06 33.28099105194135 1.1927080055488188e-15 3.1805546814635168e-15 -1.1927080055488188e-15 64.75025115398905 -60.57741054407935 -20.06234408151408 -2.9820369618429267e-06 -5.192228423411481e-06 -34.32509946565037 0.0 0.0 -3.180554681463516e-15 10.30330254596267 3.0860170161832015 -62.64801100549004 7.6614357272080085 -9.576071757965401 63.61309085752018 3.975693351829396e-16 1.5902773407317584e-15 1.0684675883041502e-15 -0.24240259281182877 7.072540830805161 57.45744301640425 -8.59829952917521 -9.546935600145964 -46.595628948223506 0.0 0.0 1.441188840038156e-15
37.60169219970703 42.55903244018555 -370.9683837890625 -2.318502384563697 17.51645050956919 -25.321664860701176 -4.7377667433011707e-07 1.6105697798862362e-06 177.34840930689774 -86.75364247583676 -45.113369682396176 8.237948951795317 7.141836095453635e-06 -1.4379834829263117e-06 33.69491643634307 -5.9635400277440935e-15 3.1805546814635168e-15 1.6552148617688094e-31 61.33400535867263 -64.28216384371103 -22.65517499705143 -2.0781656375826727e-06 -4.811918547124892e-06 -32.06263616739235 0.0 -6.361109362927033e-15 0.0 11.217751850145774 3.1649796670740784 -68.05580416625264 8.53195954977918 -9.456193865697687 69.12894659891548 1.362103896663916e-32 -7.951386703658794e-16 1.9629985924657646e-15 0.5723591752719079 7.269311118183128 55.98913701069615 -9.003083250597664 -9.54709743177749 -45.59317815411386 -3.9756933518293955e-16 1.5902773407317582e-15 -4.969616689786744e-16
37.61832046508789 42.525360107421875 -370.88201904296875 -2.307429698992861 17.426032348438504 -25.699207358526003 -5.677519679688328e-07 9.940240763293097e-07 177.24887705047877 -86.6903374200928 -44.98773208182997 8.458341075188883 -3.439499375662052e-06 4.342580709267407e-06 33.99276038155109 -8.94531004161614e-15 1.241411146326607e-31 -1.5902773407317584e-15 57.34304065368195 -66.63608673663481 -26.328314391391608 1.2832741010953092e-06 -1.4594006737945255e-06 -31.5409566511566 4.4139062980501586e-32 1.5902773407317584e-15 -3.1805546814635168e-15 11.232934952426607 3.403038851242912 -68.16775139604948 8.790908849613047 -9.869036781469969 70.20673462162702 7.951386703658794e-16 -7.951386703658794e-16 7.702905869169456e-16 0.4108771705208808 7.4381125356246125 56.68439134154919 -9.30729209254841 -9.501359921586818 -46.38508441734168 6.896728590703373e-34 1.5902773407317584e-15 -4.969616689786745e-17
37.61559295654297 42.52878952026367 -370.8677978515625 -2.3119330700314187 17.41353730905665 -25.757792537103086 -6.676300412637412e-07 7.875916944953928e-07 177.29641634949274 -86.3885972605978 -46.039378412475386 8.339348668484698 -4.420459338518875e-06 -1.6957042268644537e-06 33.39398651346907 -4.969616689786745e-16 -3.1805546814635168e-15 -1.1927080055488188e-15 60.89631609293893 -63.266356054883055 -23.534227572311103 3.0108865642333e-06 -5.796117044898191e-07 -33.71544832953501 0.0 0.0 -3.1805546814635168e-15 11.231625933321732 3.455549955243229 -68.19038961412267 8.938880359726282 -9.95001244076363 70.92067262037608 -3.975693351829396e-16 2.9311096510489336e-33 -8.448348372637467e-16 0.37929334338247145 7.404851876259185 56.69434609563076 -9.83974531493213 -9.732954966827473 -49.03908854248994 0.0 0.0 -7.951386703658792e-16
